# xmcd
#
# Track frame offsets:
#	150
#	16442
#	32552
#	62367
#	79260
#	96070
#	108682
#	126592
#	143552
#	160602
#	177227
#
# Disc length: 2629 seconds
#
# Revision: 2
# Processed by: cddbd v1.5.2PL0 Copyright (c) Steve Scherf et al.
# Submitted via: audiograbber 1.83.01
#
DISCID=890a430b
DTITLE=The Allman Brothers Band - Hell and High Water
DYEAR=1994
DGENRE=Country Rock
TTITLE0=Hell and High Water
TTITLE1=Mystry Woman
TTITLE2=From The Madness of The West
TTITLE3=I Got A Right To Be Wrong
TTITLE4=Angeline
TTITLE5=Famous Last Words
TTITLE6=Brothers Of The Road
TTITLE7=Leavin'
TTITLE8=Straight From The Heart
TTITLE9=The Judgement
TTITLE10=Never Knew How Much (I Needed You)
EXTD=1994 Arista Records Inc.\n07822-18724-2
EXTT0=
EXTT1=
EXTT2=
EXTT3=
EXTT4=
EXTT5=
EXTT6=
EXTT7=
EXTT8=
EXTT9=
EXTT10=
PLAYORDER=
